<?xml version="1.0" encoding="utf-8"?>
<!-- Generated by IcoMoon.io -->
<!DOCTYPE svg PUBLIC "-//W3C//DTD SVG 1.1//EN" "http://www.w3.org/Graphics/SVG/1.1/DTD/svg11.dtd">
<svg version="1.1" xmlns="http://www.w3.org/2000/svg" xmlns:xlink="http://www.w3.org/1999/xlink" width="512" height="512" color="#72808b" viewBox="0 0 512 512">
<g id="icomoon-ignore">
</g>
<path d="M172.57 392.112l110.255-128.628c11.259 5.994 24.102 9.392 37.742 9.392 44.428 0 80.433-36.013 80.433-80.433 0-8.127-1.211-15.97-3.452-23.364l-46.476 46.476c-6.952 6.952-18.329 6.952-25.281 0l-28.35-28.35c-6.952-6.952-6.952-18.328 0-25.281l46.476-46.476c-7.398-2.241-15.237-3.451-23.364-3.451-44.428 0-80.433 36.014-80.433 80.433 0 13.639 3.402 26.482 9.392 37.742l-128.629 110.255c-7.466 6.399-7.884 17.325-0.936 24.273l28.35 28.35c6.952 6.952 17.874 6.534 24.273-0.936z"></path>
</svg>
